<svg xmlns="http://www.w3.org/2000/svg" width="900" height="700" viewBox="0 0 900 700" role="img" aria-label="固定两端弹性杆：四分之一周期的解析状态"><rect width="900" height="700" rx="14" fill="#f7fafc"/><g font-family="PingFang SC, Microsoft YaHei, sans-serif" fill="#344658"><text x="36" y="34" font-size="22" font-weight="600">固定两端弹性杆：四分之一周期的解析状态</text><rect x="92" y="92" width="750" height="185" fill="#fff" stroke="#cedbe5"/><path d="M92,92v185" stroke="#e3eaf0"/><text x="92" y="302" text-anchor="middle" font-size="17">0</text><path d="M279.5,92v185" stroke="#e3eaf0"/><text x="279.5" y="302" text-anchor="middle" font-size="17">0.25</text><path d="M467,92v185" stroke="#e3eaf0"/><text x="467" y="302" text-anchor="middle" font-size="17">0.5</text><path d="M654.5,92v185" stroke="#e3eaf0"/><text x="654.5" y="302" text-anchor="middle" font-size="17">0.75</text><path d="M842,92v185" stroke="#e3eaf0"/><text x="842" y="302" text-anchor="middle" font-size="17">1</text><path d="M92,266.72222222222223h750" stroke="#e3eaf0"/><text x="80" y="271.72222222222223" text-anchor="end" font-size="17">0</text><path d="M92,215.33333333333334h750" stroke="#e3eaf0"/><text x="80" y="220.33333333333334" text-anchor="end" font-size="17">100</text><path d="M92,163.94444444444443h750" stroke="#e3eaf0"/><text x="80" y="168.94444444444443" text-anchor="end" font-size="17">200</text><path d="M92,112.55555555555557h750" stroke="#e3eaf0"/><text x="80" y="117.55555555555557" text-anchor="end" font-size="17">300</text><polyline points="92.00,266.72 96.69,263.51 101.38,260.30 106.06,257.09 110.75,253.89 115.44,250.69 120.13,247.50 124.81,244.31 129.50,241.13 134.19,237.97 138.88,234.81 143.56,231.67 148.25,228.54 152.94,225.42 157.63,222.32 162.31,219.24 167.00,216.17 171.69,213.13 176.38,210.11 181.06,207.10 185.75,204.12 190.44,201.17 195.13,198.24 199.81,195.34 204.50,192.46 209.19,189.61 213.88,186.80 218.56,184.01 223.25,181.25 227.94,178.53 232.63,175.84 237.31,173.19 242.00,170.57 246.69,168.00 251.38,165.45 256.06,162.95 260.75,160.49 265.44,158.07 270.13,155.69 274.81,153.35 279.50,151.06 284.19,148.81 288.88,146.60 293.56,144.45 298.25,142.34 302.94,140.28 307.63,138.26 312.31,136.30 317.00,134.39 321.69,132.52 326.38,130.71 331.06,128.96 335.75,127.25 340.44,125.60 345.13,124.00 349.81,122.46 354.50,120.98 359.19,119.55 363.88,118.17 368.56,116.86 373.25,115.60 377.94,114.40 382.63,113.26 387.31,112.17 392.00,111.15 396.69,110.19 401.38,109.29 406.06,108.45 410.75,107.67 415.44,106.95 420.13,106.29 424.81,105.69 429.50,105.16 434.19,104.69 438.88,104.28 443.56,103.93 448.25,103.65 452.94,103.43 457.63,103.27 462.31,103.18 467.00,103.15 471.69,103.18 476.37,103.27 481.06,103.43 485.75,103.65 490.44,103.93 495.13,104.28 499.81,104.69 504.50,105.16 509.19,105.69 513.88,106.29 518.56,106.95 523.25,107.67 527.94,108.45 532.63,109.29 537.31,110.19 542.00,111.15 546.69,112.17 551.38,113.26 556.06,114.40 560.75,115.60 565.44,116.86 570.13,118.17 574.81,119.55 579.50,120.98 584.19,122.46 588.88,124.00 593.56,125.60 598.25,127.25 602.94,128.96 607.63,130.71 612.31,132.52 617.00,134.39 621.69,136.30 626.38,138.26 631.06,140.28 635.75,142.34 640.44,144.45 645.13,146.60 649.81,148.81 654.50,151.06 659.19,153.35 663.88,155.69 668.56,158.07 673.25,160.49 677.94,162.95 682.63,165.45 687.31,168.00 692.00,170.57 696.69,173.19 701.38,175.84 706.06,178.53 710.75,181.25 715.44,184.01 720.13,186.80 724.81,189.61 729.50,192.46 734.19,195.34 738.88,198.24 743.56,201.17 748.25,204.12 752.94,207.10 757.63,210.11 762.31,213.13 767.00,216.17 771.69,219.24 776.38,222.32 781.06,225.42 785.75,228.54 790.44,231.67 795.13,234.81 799.81,237.97 804.50,241.13 809.19,244.31 813.88,247.50 818.56,250.69 823.25,253.89 827.94,257.09 832.63,260.30 837.31,263.51 842.00,266.72" fill="none" stroke="#3684c5" stroke-width="3" /><text x="92" y="80" font-size="17">位移 u / µm</text><text x="842" y="328" text-anchor="end" font-size="17">参考位置 X / m</text><rect x="92" y="398" width="750" height="185" fill="#fff" stroke="#cedbe5"/><path d="M92,398v185" stroke="#e3eaf0"/><text x="92" y="608" text-anchor="middle" font-size="17">0</text><path d="M279.5,398v185" stroke="#e3eaf0"/><text x="279.5" y="608" text-anchor="middle" font-size="17">0.25</text><path d="M467,398v185" stroke="#e3eaf0"/><text x="467" y="608" text-anchor="middle" font-size="17">0.5</text><path d="M654.5,398v185" stroke="#e3eaf0"/><text x="654.5" y="608" text-anchor="middle" font-size="17">0.75</text><path d="M842,398v185" stroke="#e3eaf0"/><text x="842" y="608" text-anchor="middle" font-size="17">1</text><path d="M92,574.5909090909091h750" stroke="#e3eaf0"/><text x="80" y="579.5909090909091" text-anchor="end" font-size="17">−1</text><path d="M92,532.5454545454545h750" stroke="#e3eaf0"/><text x="80" y="537.5454545454545" text-anchor="end" font-size="17">−0.5</text><path d="M92,490.5h750" stroke="#e3eaf0"/><text x="80" y="495.5" text-anchor="end" font-size="17">0</text><path d="M92,448.45454545454544h750" stroke="#e3eaf0"/><text x="80" y="453.45454545454544" text-anchor="end" font-size="17">0.5</text><path d="M92,406.40909090909093h750" stroke="#e3eaf0"/><text x="80" y="411.40909090909093" text-anchor="end" font-size="17">1</text><polyline points="92.00,406.41 96.69,406.43 101.38,406.47 106.06,406.55 110.75,406.67 115.44,406.81 120.13,406.99 124.81,407.20 129.50,407.44 134.19,407.72 138.88,408.02 143.56,408.36 148.25,408.73 152.94,409.13 157.63,409.57 162.31,410.03 167.00,410.52 171.69,411.05 176.38,411.61 181.06,412.19 185.75,412.81 190.44,413.46 195.13,414.13 199.81,414.84 204.50,415.57 209.19,416.34 213.88,417.13 218.56,417.95 223.25,418.80 227.94,419.68 232.63,420.58 237.31,421.51 242.00,422.47 246.69,423.45 251.38,424.46 256.06,425.50 260.75,426.56 265.44,427.64 270.13,428.75 274.81,429.88 279.50,431.04 284.19,432.22 288.88,433.42 293.56,434.64 298.25,435.89 302.94,437.15 307.63,438.44 312.31,439.75 317.00,441.07 321.69,442.42 326.38,443.78 331.06,445.16 335.75,446.56 340.44,447.98 345.13,449.41 349.81,450.86 354.50,452.32 359.19,453.80 363.88,455.29 368.56,456.80 373.25,458.32 377.94,459.85 382.63,461.39 387.31,462.95 392.00,464.51 396.69,466.09 401.38,467.67 406.06,469.27 410.75,470.87 415.44,472.48 420.13,474.09 424.81,475.72 429.50,477.35 434.19,478.98 438.88,480.62 443.56,482.26 448.25,483.90 452.94,485.55 457.63,487.20 462.31,488.85 467.00,490.50 471.69,492.15 476.37,493.80 481.06,495.45 485.75,497.10 490.44,498.74 495.13,500.38 499.81,502.02 504.50,503.65 509.19,505.28 513.88,506.91 518.56,508.52 523.25,510.13 527.94,511.73 532.63,513.33 537.31,514.91 542.00,516.49 546.69,518.05 551.38,519.61 556.06,521.15 560.75,522.68 565.44,524.20 570.13,525.71 574.81,527.20 579.50,528.68 584.19,530.14 588.88,531.59 593.56,533.02 598.25,534.44 602.94,535.84 607.63,537.22 612.31,538.58 617.00,539.93 621.69,541.25 626.38,542.56 631.06,543.85 635.75,545.11 640.44,546.36 645.13,547.58 649.81,548.78 654.50,549.96 659.19,551.12 663.88,552.25 668.56,553.36 673.25,554.44 677.94,555.50 682.63,556.54 687.31,557.55 692.00,558.53 696.69,559.49 701.38,560.42 706.06,561.32 710.75,562.20 715.44,563.05 720.13,563.87 724.81,564.66 729.50,565.43 734.19,566.16 738.88,566.87 743.56,567.54 748.25,568.19 752.94,568.81 757.63,569.39 762.31,569.95 767.00,570.48 771.69,570.97 776.38,571.43 781.06,571.87 785.75,572.27 790.44,572.64 795.13,572.98 799.81,573.28 804.50,573.56 809.19,573.80 813.88,574.01 818.56,574.19 823.25,574.33 827.94,574.45 832.63,574.53 837.31,574.57 842.00,574.59" fill="none" stroke="#199d9a" stroke-width="3" /><text x="92" y="386" font-size="17">应力 σ / kPa（拉正）</text><text x="842" y="634" text-anchor="end" font-size="17">参考位置 X / m</text><text x="450" y="675" font-size="17" text-anchor="middle">解析时刻 t = T/4：速度处处为零；左半段受拉，右半段受压</text></g></svg>
